<svg xmlns="http://www.w3.org/2000/svg" viewBox="0 0 512 361.38">
  <path fill="#fff" d="M 231.15448,56.419043 V 0.696392 C 228.91095,0.631092 227.96303,0.586519 225.70167,0.586519 103.72221,0.586519 4.3444317,95.566399 0,214.33657 H 57.068766 C 61.374553,126.50923 135.2237,56.603331 225.70167,56.603331 c 2.26729,0 3.21224,-0.276354 5.45281,-0.18431"></path>
  <path fill="#fff" d="m 326.75482,1.56e-4 h -80.27067 v 55.027307 h 49.80627 c 41.86032,0 50.80173,6.724626 50.80173,23.097915 0,15.787884 -14.29913,21.350639 -56.15944,21.350639 H 231.35 c -0.0267,-15.701724 -0.0446,-27.08576 -0.0446,-28.948926 -8.08561,0 -32.07499,-0.944955 -56.78051,8.477853 V 218.76025 h 57.03012 c 0,0 -0.0624,-34.26204 -0.11879,-69.87021 h 95.31864 c 41.86033,0 75.78958,-33.32899 75.78958,-74.452372 0,-41.111503 -33.92925,-74.437512 -75.78958,-74.437512"></path>
  <path fill="#fff" d="m 179.17454,319.26888 q 0,-12.82332 -4.27443,-18.5226 -5.22433,-7.12407 -18.36429,-7.12407 -13.13996,0 -18.36429,7.12407 -4.27445,5.69928 -4.27445,18.5226 0,12.82336 4.27445,18.52261 5.22433,6.96575 18.36429,6.96575 v 0 q 13.13996,0 18.36429,-6.96575 4.27443,-5.69926 4.27443,-18.52261 z m 16.46453,0 q 0,41.95289 -39.10325,41.95289 -39.26157,0 -39.26157,-41.95289 0,-42.11119 39.26157,-42.11119 v 0 q 39.10325,0 39.10325,42.11119 z M 89.799564,277.15769 h 16.464526 v 84.06408 H 89.799564 Z M 106.26409,260.69315 H 89.799564 v -16.46453 h 16.464526 z m -41.903412,58.57573 q 0,-12.82332 -4.274452,-18.5226 -5.382634,-7.12407 -18.522593,-7.12407 H 18.92489 v 25.64667 q 0,12.66503 4.274452,18.36429 5.224332,7.12407 18.364291,7.12407 v 0 q 13.139959,0 18.522593,-7.12407 4.274452,-5.69926 4.274452,-18.36429 z m 16.46453,0 q 0,41.95289 -39.261575,41.95289 -39.1032727,0 -39.1032727,-41.95289 V 244.22862 H 18.92489 v 32.92907 h 22.638743 q 39.261575,0 39.261575,42.11119 z"></path>
  <path fill="#fff" d="m 511.99999,361.22177 h -16.46453 v -41.95289 q 0,-12.82332 -4.27445,-18.5226 -5.22431,-7.12407 -18.36427,-7.12407 -13.13996,0 -18.52259,7.12407 -4.27446,5.69928 -4.27446,18.5226 v 41.95289 H 433.63516 V 244.22862 h 16.46453 v 38.47 q 9.34046,-5.54093 22.79705,-5.54093 v 0 q 39.10325,0 39.10325,42.11119 z M 425.51421,335.5751 q -6.80744,25.64667 -37.20351,25.64667 -39.10325,0 -39.10325,-42.1112 0,-41.95288 39.10325,-41.95288 30.39607,0 37.20351,25.64666 H 408.0998 q -4.74938,-9.18214 -19.7891,-9.18214 -13.13996,0 -18.36427,6.96577 -4.27445,5.69926 -4.27445,18.52259 0,12.82334 4.27445,18.5226 5.22431,7.12407 18.36427,7.12407 14.88142,0 19.7891,-9.18214 v 0 z m -105.4858,-24.53847 q -2.53299,-17.41442 -22.16379,-17.41442 v 0 q -19.7891,0 -22.32209,17.41442 z m 16.93948,50.18515 h -39.10327 q -39.26157,0 -39.26157,-41.95289 0,-42.1112 39.26157,-42.1112 39.10327,0 39.10327,42.1112 v 8.23227 h -61.42536 q 2.53299,17.25608 22.32209,17.25608 h 39.10327 z m -86.94094,0.15823 q -41.95289,0 -41.95289,-30.55437 v -86.5971 h 16.46453 v 33.08737 h 25.48836 v 16.46452 h -25.48836 v 37.04521 q 0,6.64914 4.27445,9.81539 5.85757,4.27445 21.21391,4.27445 z"></path>
</svg>
