<svg xmlns="http://www.w3.org/2000/svg" xmlns:xlink="http://www.w3.org/1999/xlink" viewBox="0 0 512 365.371" height="120">
  <path fill="#f01283" d="M225.663,57.619c-90.466,0-164.302,71.15-168.609,160.546H0C4.34,97.274,103.702,0.597,225.663,0.597c2.258,0,3.204,0.046,5.449,0.105v56.726C228.867,57.336,227.921,57.619,225.663,57.619zM41.573,281.321H18.938v-33.083H2.476v75.029c0,27.964,13.032,41.946,39.097,41.946c26.169,0,39.255-13.955,39.255-41.867C80.829,295.329,67.743,281.321,41.573,281.321zM60.093,341.763c-3.589,4.764-9.762,7.146-18.52,7.146c-8.76,0-14.879-2.383-18.361-7.146c-2.85-3.808-4.274-9.949-4.274-18.417v-25.723h22.635c8.758,0,14.931,2.383,18.52,7.146c2.849,3.811,4.273,10.003,4.273,18.576C64.366,331.814,62.942,337.956,60.093,341.763zM106.312,248.238H89.85v16.305h16.462V248.238zM89.85,365.213h16.462v-83.893H89.85V365.213zM156.488,281.321c-26.172,0-39.255,14.008-39.255,42.025c0,27.912,13.083,41.867,39.255,41.867c26.063,0,39.097-13.955,39.097-41.867C195.585,295.329,182.551,281.321,156.488,281.321zM174.85,341.922c-3.483,4.66-9.604,6.987-18.362,6.987c-8.76,0-14.879-2.327-18.361-6.987c-2.849-3.809-4.274-10.001-4.274-18.576c0-8.573,1.425-14.766,4.274-18.576c3.482-4.764,9.601-7.146,18.361-7.146c8.758,0,14.879,2.383,18.362,7.146c2.849,3.811,4.273,10.003,4.273,18.576C179.124,331.921,177.699,338.114,174.85,341.922z"/>
  <path fill="#939393" d="M402.465,75.772c0,41.848-33.924,75.772-75.771,75.772h-95.306c0.06,36.248,0.119,71.125,0.119,71.125h-57.015c0,0,0-116.663,0-142.255c24.699-9.592,48.683-8.627,56.765-8.627c0,1.897,0.02,13.485,0.046,29.466h59.575c41.849,0,56.142-5.66,56.142-21.732c0-16.663-8.941-23.511-50.785-23.511h-49.799V0h80.257C368.541,0,402.465,33.924,402.465,75.772zM249.877,349.068c-10.237,0-17.308-1.433-21.21-4.301c-2.85-2.122-4.274-5.414-4.274-9.874v-37.27h25.484v-16.303h-25.484v-33.083h-16.462v86.584c0,20.367,13.981,30.55,41.946,30.55V349.068zM336.936,348.91h-39.096c-13.193,0-20.633-5.803-22.319-17.412h61.416v-8.206c0-27.98-13.035-41.971-39.096-41.971c-26.172,0-39.256,14.008-39.256,42.025c0,27.912,13.084,41.867,39.256,41.867h39.096V348.91zM275.52,315.194c1.687-11.712,9.126-17.57,22.319-17.57c13.083,0,20.471,5.858,22.159,17.57H275.52zM408.006,339.571c-3.271,6.228-9.869,9.339-19.787,9.339c-8.76,0-14.879-2.383-18.361-7.146c-2.848-3.808-4.273-10-4.273-18.575c0-8.573,1.426-14.766,4.273-18.576c3.482-4.658,9.602-6.988,18.361-6.988c10.025,0,16.621,3.063,19.787,9.181h17.41c-4.537-16.988-16.936-25.483-37.197-25.483c-26.064,0-39.096,13.957-39.096,41.867c0,28.017,13.031,42.025,39.096,42.025c20.262,0,32.66-8.548,37.197-25.643H408.006zM512,323.346c0-28.018-13.033-42.025-39.098-42.025c-8.908,0-16.451,1.795-22.635,5.382v-38.465h-16.619v116.976h16.619v-41.946c0-8.548,1.416-14.721,4.244-18.52c3.563-4.749,9.693-7.124,18.391-7.124s14.777,2.375,18.232,7.124c2.83,3.799,4.246,9.972,4.246,18.52v41.946H512V323.346z"/>
</svg>
